# xmcd CD database file
#
# Track frame offsets:
#	150
#	21417
#	39780
#	61045
#	82313
#
# Disc length: 1341 seconds
#
# Revision: 0
# Processed by: cddbd v1.5.2PL0 Copyright (c) Steve Scherf et al.
# Submitted via: CD2WAV32(JP) R3.22
#
DISCID=36053b05
DTITLE=秋元順子 - 雨の旅人
DYEAR=2007
DGENRE=JPop
TTITLE0=雨の旅人
TTITLE1=ロンリーナイト・東京
TTITLE2=雨の旅人_オリジナルカラオケ
TTITLE3=雨の旅人_一般用カラオケ
TTITLE4=ロンリーナイト・東京_オリジナルカラオケ
EXTD=
EXTT0=
EXTT1=
EXTT2=
EXTT3=
EXTT4=
PLAYORDER=
